<svg width="669" height="669" viewBox="0 0 669 669" fill="none" xmlns="http://www.w3.org/2000/svg">
<path d="M305.913 13.9499L13.9615 305.661C-1.73425 321.344 -1.73425 346.675 13.9615 362.358L305.913 654.069C321.609 669.752 346.96 669.752 362.656 654.069L485.067 531.759C499.124 517.713 499.124 494.942 485.067 480.897C471.01 466.851 448.22 466.851 434.163 480.897L341.364 573.619C337.458 577.523 331.529 577.523 327.622 573.619L94.4777 340.667C90.5711 336.763 90.5711 330.839 94.4777 326.936L327.622 93.9831C331.529 90.0797 337.458 90.0797 341.364 93.9831L434.163 186.706C448.22 200.751 471.01 200.751 485.067 186.706C499.124 172.661 499.124 149.889 485.067 135.844L362.67 13.5465C346.909 -1.79703 321.549 -1.67282 305.913 13.9499Z" fill="url(#paint0_linear_187_99)"/>
<path d="M305.913 13.9499L13.9615 305.661C-1.73425 321.344 -1.73425 346.675 13.9615 362.358L305.913 654.069C321.609 669.752 346.96 669.752 362.656 654.069L485.067 531.759C499.124 517.713 499.124 494.942 485.067 480.897C471.01 466.851 448.22 466.851 434.163 480.897L341.364 573.619C337.458 577.523 331.529 577.523 327.622 573.619L94.4777 340.667C90.5711 336.763 90.5711 330.839 94.4777 326.936L327.622 93.9831C337.349 85.5971 353.221 68.6116 376.528 64.6389C393.849 61.6865 412.787 68.1847 433.339 84.1334C419.599 70.4039 396.042 46.8749 362.67 13.5465C346.909 -1.79703 321.549 -1.67282 305.913 13.9499Z" fill="url(#paint1_linear_187_99)"/>
<path d="M513.325 453.767C527.381 467.812 550.172 467.812 564.229 453.767L654.525 363.545C670.221 347.862 670.221 322.532 654.527 306.851L563.443 216.165C549.353 202.136 526.556 202.156 512.491 216.21C498.434 230.255 498.434 253.027 512.491 267.072L574.009 328.54C577.916 332.443 577.916 338.367 574.009 342.271L513.325 402.905C499.268 416.95 499.268 439.722 513.325 453.767Z" fill="url(#paint2_linear_187_99)"/>
<path d="M335.744 414.23C379.279 414.23 414.571 378.967 414.571 335.468C414.571 291.969 379.279 256.706 335.744 256.706C292.209 256.706 256.917 291.969 256.917 335.468C256.917 378.967 292.209 414.23 335.744 414.23Z" fill="url(#paint3_linear_187_99)"/>
<defs>
<linearGradient id="paint0_linear_187_99" x1="308.615" y1="2.13503" x2="586.054" y2="171.563" gradientUnits="userSpaceOnUse">
<stop stop-color="#4285EB"/>
<stop offset="1" stop-color="#2EC7FF"/>
</linearGradient>
<linearGradient id="paint1_linear_187_99" x1="345.828" y1="2.13501" x2="208.799" y2="710.339" gradientUnits="userSpaceOnUse">
<stop stop-color="#29CDFF"/>
<stop offset="0.378601" stop-color="#148EFF"/>
<stop offset="1" stop-color="#0A60FF"/>
</linearGradient>
<linearGradient id="paint2_linear_187_99" x1="616.484" y1="172.099" x2="438.188" y2="450.94" gradientUnits="userSpaceOnUse">
<stop stop-color="#FA816E"/>
<stop offset="0.414726" stop-color="#F74A5C"/>
<stop offset="1" stop-color="#F51D2C"/>
</linearGradient>
<linearGradient id="paint3_linear_187_99" x1="364.324" y1="200.485" x2="304.999" y2="437.792" gradientUnits="userSpaceOnUse">
<stop stop-color="#FA8E7D"/>
<stop offset="0.512635" stop-color="#F74A5C"/>
<stop offset="1" stop-color="#F51D2C"/>
</linearGradient>
</defs>
</svg>
