<svg width="717" height="570" viewBox="0 0 717 570" fill="none" xmlns="http://www.w3.org/2000/svg">
<g clip-path="url(#clip0_187_25)">
<path d="M579.428 418.756C551.04 447.492 511.33 463.742 468.316 463.799C425.274 463.884 385.535 447.749 357.147 419.098C343.269 405.129 333.097 389.108 326.776 371.974C320.598 355.154 318.242 337.166 319.822 319.348C321.345 301.958 326.517 285.053 335.051 269.772C343.355 254.834 354.762 241.35 368.841 229.947C396.425 207.625 431.538 195.566 468.316 195.509C505.095 195.452 540.179 207.454 567.791 229.661C581.842 241.036 593.249 254.464 601.524 269.373C610.058 284.654 615.259 301.531 616.782 318.92C618.362 336.767 615.977 354.727 609.8 371.575C603.478 388.68 593.278 404.73 579.428 418.756V418.756Z" fill="white"/>
<path d="M376.542 321.173C377.835 297.938 389.328 277.441 406.626 262.93C423.607 248.648 446.479 239.953 471.391 239.953C496.332 239.981 519.175 248.676 536.156 262.93C553.454 277.47 564.947 297.938 566.269 321.173C567.59 345.062 557.907 367.27 540.926 383.719C523.628 400.454 498.975 410.973 471.391 410.973C443.807 410.973 419.125 400.454 401.827 383.719C384.875 367.27 375.22 345.062 376.542 321.173V321.173Z" fill="#005385"/>
<path d="M225.433 368.211C225.605 377.277 228.536 394.952 232.904 408.778C242.127 437.999 257.758 465.053 279.538 488.886C301.893 513.375 329.362 533.045 361.141 546.986C394.558 561.667 430.733 569.165 468.288 569.079C505.843 569.022 542.018 561.411 575.406 546.615C607.157 532.504 634.626 512.776 656.952 488.23C678.703 464.284 694.305 437.201 703.529 407.98C708.126 393.412 711.086 378.389 712.292 363.194C713.442 348.369 712.953 333.431 710.856 318.692C706.718 289.785 696.633 262.674 681.117 237.957C666.894 215.265 648.619 195.366 626.868 178.603L626.897 178.575L407.431 11.4032C407.258 11.2607 407.057 11.0896 406.885 10.9471C392.432 -5.14703e-05 368.238 0.0284584 352.406 11.0326C336.373 22.1508 334.563 40.5385 348.786 52.1413L348.728 52.1698L440.273 126.063L161.185 126.348H160.811C137.767 126.377 115.585 141.4 111.189 160.358C106.706 179.687 122.366 195.708 146.358 195.822L146.33 195.908L287.784 195.623L35.3611 387.853C35.045 388.11 34.7002 388.338 34.4129 388.566C10.6216 406.64 2.92102 436.745 17.8911 455.788C33.1199 475.145 65.4738 475.174 89.5524 455.874L227.301 344.036C227.301 344.036 225.289 359.146 225.433 368.211V368.211ZM579.429 418.756C551.04 447.492 511.331 463.742 468.317 463.799C425.274 463.884 385.536 447.749 357.147 419.098C343.269 405.129 333.097 389.108 326.776 371.974C320.598 355.154 318.242 337.166 319.822 319.348C321.345 301.958 326.517 285.053 335.051 269.772C343.355 254.834 354.762 241.35 368.842 229.947C396.426 207.625 431.538 195.566 468.317 195.509C505.096 195.452 540.179 207.454 567.792 229.662C581.843 241.036 593.25 254.464 601.525 269.373C610.059 284.654 615.26 301.531 616.783 318.921C618.363 336.767 615.978 354.727 609.8 371.575C603.479 388.68 593.279 404.73 579.429 418.756V418.756Z" fill="#FF7021"/>
</g>
<defs>
<clipPath id="clip0_187_25">
<rect width="716.363" height="569.165" fill="white"/>
</clipPath>
</defs>
</svg>
