<svg width="678" height="678" viewBox="0 0 678 678" fill="none" xmlns="http://www.w3.org/2000/svg">
<g clip-path="url(#clip0_187_91)">
<path d="M0 590.196C0 638.452 39.116 677.562 87.3658 677.562H590.194C638.452 677.562 677.562 638.446 677.562 590.196V87.3685C677.562 39.1107 638.446 0 590.196 0H87.3685C39.1107 0 0 39.116 0 87.3658V590.194V590.196Z" fill="#563D7C"/>
<path d="M280.971 299.71V203.758H365.431C373.477 203.758 381.232 204.428 388.701 205.77C396.17 207.109 402.779 209.502 408.525 212.95C414.268 216.399 418.866 221.187 422.314 227.314C425.76 233.444 427.486 241.297 427.486 250.87C427.486 268.108 422.314 280.558 411.971 288.218C401.63 295.88 388.415 299.71 372.326 299.71H280.971V299.71ZM190.763 133.66V543.902H389.564C407.951 543.902 425.858 541.605 443.287 537.008C460.716 532.41 476.228 525.325 489.827 515.749C503.423 506.173 514.246 493.818 522.289 478.69C530.335 463.558 534.356 445.651 534.356 424.966C534.356 399.301 528.131 377.373 515.683 359.179C503.233 340.983 484.367 328.247 459.085 320.969C477.472 312.16 491.36 300.859 500.745 287.069C510.128 273.28 514.82 256.044 514.82 235.358C514.82 216.206 511.66 200.119 505.34 187.094C499.019 174.073 490.113 163.634 478.621 155.781C467.131 147.928 453.342 142.277 437.253 138.831C421.166 135.383 403.353 133.66 383.818 133.66H190.763V133.66ZM280.971 473.804V361.188H379.22C398.756 361.188 414.462 365.688 426.337 374.692C438.211 383.693 444.15 398.727 444.15 419.795C444.15 430.522 442.329 439.33 438.69 446.225C435.05 453.12 430.167 458.58 424.037 462.6C417.91 466.623 410.822 469.495 402.779 471.221C394.733 472.941 386.308 473.804 377.497 473.804H280.971V473.804Z" fill="white"/>
</g>
<defs>
<clipPath id="clip0_187_91">
<rect width="677.562" height="677.562" fill="white"/>
</clipPath>
</defs>
</svg>
