<svg width="499" height="589" viewBox="0 0 499 589" fill="none" xmlns="http://www.w3.org/2000/svg">
<path d="M120.555 1.4376C119.237 2.15662 117.799 3.355 117.32 4.07402C116.121 5.75174 116.121 126.068 117.32 127.746C117.799 128.465 119.357 129.663 120.915 130.502C123.671 131.94 127.866 130.622 129.783 127.746C130.981 126.068 130.981 5.75174 129.783 4.07402C129.064 2.87565 124.27 -0.000442134 123.312 -0.000442134C123.072 -0.000442134 121.874 0.71858 120.555 1.4376Z" fill="white"/>
<path d="M369.817 2.75765C368.259 5.27423 368.019 13.4231 368.259 66.511L368.619 127.388L371.974 129.785L375.21 132.302L378.565 129.785L381.801 127.388L382.16 66.511C382.4 -0.837461 382.52 0.0013988 375.21 0.0013988C372.813 0.0013988 371.015 0.960095 369.817 2.75765Z" fill="white"/>
<path d="M25.6451 64.8344C17.2565 68.07 8.14892 76.4586 4.07446 84.8472L0.719022 91.6779L0.359511 153.634L0 215.709H249.381H498.762L498.402 153.634L498.043 91.6779L494.687 84.8472C490.493 76.3387 481.505 68.07 472.757 64.8344C466.646 62.5575 463.53 62.3178 431.533 62.3178H396.781V93.1159C396.781 125.232 396.062 131.344 392.227 136.497C382.999 149.08 362.867 147.642 356.156 133.861C353.759 128.947 353.639 126.67 353.639 95.5127V62.3178H249.381H145.123V96.1118C145.123 127.989 145.003 130.146 142.606 135.059C139.251 141.89 131.701 146.443 123.672 146.443C117.56 146.443 113.845 145.125 109.411 140.931C102.82 135.059 102.581 133.861 102.221 96.711L101.862 62.3178L66.8691 62.4376C34.8726 62.4376 31.3973 62.6773 25.6451 64.8344Z" fill="white"/>
<path d="M0.358815 395.104L0.718326 560.239L3.71425 566.231C7.4292 573.901 15.8178 582.289 23.4874 586.004L29.4792 589H249.38H469.281L476.112 585.645C483.781 581.93 490.972 574.38 495.286 565.871L498.042 560.239L498.402 395.104L498.641 230.088H249.38H0.119141L0.358815 395.104ZM153.511 347.528V379.884H121.155H88.7986V347.528V315.172H121.155H153.511V347.528ZM281.736 347.528V379.884H249.38H217.024V347.528V315.172H249.38H281.736V347.528ZM409.962 347.528V379.884H377.606H345.25V347.528V315.172H377.606H409.962V347.528ZM153.511 457.778V490.134H121.155H88.7986V457.778V425.422H121.155H153.511V457.778ZM281.736 457.778V490.134H249.38H217.024V457.778V425.422H249.38H281.736V457.778ZM409.962 457.778V490.134H377.606H345.25V457.778V425.422H377.606H409.962V457.778Z" fill="white"/>
</svg>
