<svg width="833" height="833" viewBox="0 0 833 833" fill="none" xmlns="http://www.w3.org/2000/svg">
<g opacity="0.948">
<path d="M0 440.081V388.773C16.8737 221.575 101.242 102.658 253.104 32.0254C313.232 7.38652 375.707 -3.03532 440.529 0.759818V42.4472C307.042 37.7792 198.912 87.4834 116.139 191.56C70.4835 253.294 46.1878 322.506 43.2519 399.195C97.1834 400.265 151.115 400.265 205.046 399.195C218.582 391.108 226.325 379.082 228.274 363.119C228.541 346.816 228.808 330.511 229.075 314.207L229.076 314.168C229.343 297.884 229.61 281.599 229.876 265.314C232.998 244.581 243.944 229.883 262.715 221.222C279.178 219.025 295.733 218.224 312.375 218.817V255.694C302.749 255.428 293.138 255.696 283.54 256.496C277.179 259.51 273.709 264.588 273.128 271.728C273.005 308.123 271.936 344.464 269.924 380.756C266.236 395.897 259.028 408.992 248.298 420.039C252.816 425.633 257.354 431.245 261.914 436.874C265.536 444.009 268.207 451.492 269.924 459.321C271.457 497.851 273.059 536.332 274.73 574.763C275.827 578.863 278.23 581.803 281.938 583.582C292.071 584.383 302.216 584.649 312.375 584.383V622.864C296.264 623.449 280.245 622.647 264.317 620.459C253.831 617.223 245.554 611.076 239.488 602.02C235.02 593.949 231.816 585.397 229.876 576.366C229.609 560.066 229.342 543.765 229.075 527.464C228.808 511.163 228.541 494.862 228.274 478.561C227.244 459.614 217.9 447.055 200.24 440.882C133.496 440.081 66.7489 439.813 0 440.081Z" fill="#FEFFFE"/>
<path d="M833 399.997V433.667C825.383 558.21 774.121 660.559 679.215 740.711C598.06 804.218 505.682 834.95 402.083 832.904V791.217C552.851 791.286 666.855 727.151 744.093 598.813C771.428 549.476 786.113 496.833 788.146 440.882C736.351 439.813 684.555 439.813 632.76 440.882C619.097 447.628 610.82 458.583 607.93 473.751C607.685 488.449 607.44 503.146 607.196 517.844L607.129 521.852C606.862 537.886 606.595 553.919 606.328 569.953C604.878 587.551 597.669 602.249 584.702 614.045C580.353 617.105 575.547 619.242 570.285 620.459C554.357 622.647 538.337 623.449 522.227 622.864V584.383C532.92 584.649 543.6 584.383 554.265 583.582C557.657 580.806 560.06 577.332 561.474 573.16C563.523 537.419 564.591 501.61 564.678 465.734C567.646 448.292 575.39 433.594 587.906 421.642C582.855 415.514 577.782 409.368 572.687 403.203C568.534 395.13 565.865 386.58 564.678 377.55C564.433 362.115 564.188 346.681 563.944 331.247L563.876 327.007C563.609 310.184 563.342 293.361 563.076 276.538C563.21 267.269 559.206 260.589 551.061 256.496C541.464 255.696 531.853 255.428 522.227 255.694V218.817C538.884 218.177 555.438 218.979 571.886 221.222C593.44 230.908 604.92 247.743 606.328 271.728C606.595 287.761 606.862 303.795 607.129 319.829L607.93 367.929C610.421 382.273 618.163 392.695 631.158 399.195C698.437 399.997 765.718 400.264 833 399.997Z" fill="#FEFFFE"/>
<path d="M517.421 360.714C492.777 319.793 456.466 302.424 408.49 308.605C357.391 318.868 327.755 349.868 319.584 401.6C314.59 466.041 343.157 506.391 405.286 522.654C453.887 531.411 490.731 514.842 515.819 472.95C503.657 464.319 490.574 457.104 476.572 451.304C469.118 464.634 458.172 473.988 443.733 479.363C407.265 485.614 382.435 471.452 369.243 436.874C361.218 405.929 369.493 380.541 394.073 360.714C428.263 342.755 455.763 349.97 476.572 382.36C489.809 374.532 503.425 367.317 517.421 360.714Z" fill="#FEFFFE"/>
</g>
</svg>
