<svg width="68" height="10" viewBox="0 0 68 10" fill="none" xmlns="http://www.w3.org/2000/svg">
<path d="M34.1765 3.22906C34.2179 2.39676 34.5036 1.7165 34.9501 1.18577V0.478871H34.3567C33.1572 0.478871 32.1418 0.959106 31.5515 2.04387H31.5169V0.598167H28.4403V9.41428H31.5176V5.85524C31.5176 4.34462 31.9407 3.19299 33.6483 3.19299C33.8342 3.19438 34.0082 3.20548 34.1765 3.22906ZM57.4745 3.19688C57.73 2.41771 58.1445 1.72371 58.6833 1.1669V0.478177H58.091C56.891 0.478177 55.8767 0.958136 55.2833 2.04248H55.2501V0.598167H52.1715V9.41428H55.2501V5.85524C55.2501 4.34462 55.6746 3.19299 57.3822 3.19299L57.4745 3.19688ZM40.4256 2.86632C39.9509 2.60858 39.2902 2.43671 38.7646 2.43671C38.4116 2.43671 37.8017 2.59013 37.8017 3.03819C37.8017 3.64021 38.7646 3.72553 39.1903 3.81347C40.6247 4.10478 41.7098 4.79281 41.7098 6.42328C41.7098 8.74261 39.6294 9.70808 37.6154 9.70808C36.3801 9.70808 35.165 9.34672 34.1149 8.69337L35.2309 6.50928C35.8558 6.95789 36.9045 7.40317 37.6656 7.40317C38.0549 7.40317 38.6296 7.21493 38.6296 6.73359C38.6296 6.04611 37.6656 6.01004 36.7003 5.75286C35.7377 5.49513 34.7749 5.01503 34.7749 3.43367C34.7749 1.26789 36.7003 0.307001 38.5982 0.307001C39.579 0.307001 40.5607 0.460976 41.455 0.873657L40.4257 2.86632H40.4256ZM67.9117 9.41428H64.8344V8.43355H64.8005C64.2593 9.30996 63.1916 9.70475 62.1788 9.70475C59.6065 9.70475 57.7984 7.52191 57.7984 4.99533C57.7984 2.47139 59.5744 0.304921 62.1441 0.304921C63.1414 0.304921 64.1915 0.682784 64.8339 1.45543V0.598167H67.9105L67.9118 9.41428H67.9117ZM60.9782 5.01434C60.9782 6.13073 61.7065 6.99007 62.9563 6.99007C64.2074 6.99007 64.9325 6.13211 64.9325 5.01434C64.9325 3.93152 64.2074 3.02098 62.9563 3.02098C61.7065 3.02182 60.9782 3.93152 60.9782 5.01434ZM51.6862 5.53119H45.2072C45.2072 6.80184 45.8685 7.48848 47.1363 7.48848C47.7957 7.48848 48.2687 7.26612 48.6078 6.68115H51.5682C51.0777 8.76093 49.1321 9.70614 47.154 9.70614C44.2809 9.70614 42.1332 8.05514 42.1332 5.01503C42.1332 2.0766 44.1094 0.307001 46.9335 0.307001C49.9435 0.307001 51.6874 2.19798 51.6874 5.20396L51.6861 5.53133L51.6862 5.53119ZM48.8276 3.72552C48.6748 2.88338 47.9138 2.33365 47.0861 2.33365C46.1887 2.33365 45.4476 2.81319 45.2586 3.72552H48.8276ZM18.6524 4.86092C18.6491 4.78561 18.6445 4.71037 18.6386 4.63523V4.63259C18.5696 3.81472 18.3109 3.04928 17.8719 2.35792C17.6786 2.05319 17.4536 1.77165 17.2012 1.51841C16.835 1.1504 16.4111 0.846053 15.9332 0.60538C15.2142 0.24666 14.4197 0.065635 13.572 0.065635C13.4891 0.065635 13.4024 0.0668834 13.3151 0.0702126C12.7198 0.098372 12.144 0.21642 11.6026 0.424355C11.0568 0.630349 10.5814 0.90251 10.1927 1.22919C10.1137 1.2948 10.0276 1.37539 9.9353 1.46403L9.86863 1.53214L9.77765 1.63313H9.77885L9.73621 1.6771L9.7155 1.70068L9.60686 1.82012C9.52858 1.91207 9.45237 2.00591 9.37829 2.10157L9.37762 2.10019L9.37496 2.09755C9.22621 2.28648 9.08875 2.48193 8.98755 2.65769C8.91871 2.77122 8.85216 2.88624 8.78793 3.00267L7.90061 4.87673L7.90181 4.87798L7.85532 4.97314L7.75731 5.18038C7.56274 5.59167 7.35422 6.00158 7.12114 6.34005C6.60184 6.93486 6.01481 7.22617 5.2599 7.22617C5.20704 7.22617 5.15312 7.22339 5.09787 7.2202C4.64312 7.2012 4.25318 7.08912 3.90721 6.87522C3.87071 6.8527 3.83484 6.82911 3.79963 6.80447C3.51714 6.60833 3.30052 6.35642 3.13849 6.04223C2.95574 5.686 2.87472 5.32201 2.88615 4.93638C2.88668 4.92584 2.88734 4.91668 2.88734 4.90808C2.91178 4.29426 3.13597 3.81666 3.58753 3.40412C3.69504 3.30787 3.8104 3.22162 3.93231 3.14638C3.94918 3.13584 3.96618 3.12599 3.98318 3.11684C4.31853 2.92596 4.70036 2.83094 5.13798 2.83094L5.27425 2.83483C5.96952 2.86243 6.50582 3.08937 6.93347 3.53202L8.27488 1.01667C7.95387 0.792369 7.59156 0.599415 7.19219 0.442666C7.17705 0.43684 7.16138 0.430181 7.14571 0.425049C7.0979 0.407293 7.05088 0.388983 7.00187 0.372475C6.5774 0.224326 6.13208 0.13319 5.67375 0.0918524C5.66233 0.0897716 5.64984 0.0885232 5.63855 0.0872747C5.56816 0.0825584 5.49658 0.0734031 5.42632 0.0702126C5.34989 0.0671571 5.27343 0.0653998 5.19695 0.0649414H5.15352C4.31016 0.0681319 3.52657 0.248602 2.80991 0.605935C2.00733 1.01002 1.35668 1.59845 0.874436 2.35653C0.393522 3.11503 0.130951 3.95663 0.0933655 4.85981C0.0901356 4.93629 0.0884529 5.01283 0.0883186 5.08938C0.0876546 6.3524 0.528592 7.46351 1.40515 8.39624C2.32023 9.37488 3.51023 9.90228 4.9389 9.96457C5.03054 9.96845 5.12111 9.97109 5.21143 9.97109C6.01972 9.97109 6.76759 9.82086 7.43829 9.52053C7.60604 9.44563 7.76873 9.35782 7.93501 9.26016C8.02559 9.20565 8.11099 9.14794 8.19572 9.08635L8.25854 9.04238L8.364 8.96692C8.48991 8.87167 8.61048 8.76894 8.72511 8.65925L8.76536 8.6193C8.83344 8.55229 8.9 8.4836 8.96497 8.4133L9.2055 8.12935L9.29714 8.00922L9.3399 7.94375L9.38267 7.87938C9.73993 7.25239 10.903 4.9705 10.903 4.9705V4.96593L10.972 4.82679L11.0298 4.7179C11.2013 4.39192 11.3251 4.1604 11.4889 3.91709L11.4933 3.90988C11.8758 3.33074 12.5332 2.91806 13.3082 2.8487C14.6082 2.7319 15.7473 3.62385 15.8522 4.84122C15.9565 6.05859 14.9868 7.14016 13.6869 7.25766C13.4162 7.28193 13.1531 7.26293 12.905 7.20578L12.8987 7.20855C11.9449 7.00117 11.3375 6.27444 11.038 5.9497L9.78695 8.35227C9.78695 8.35227 10.1758 8.76162 10.4421 8.96623C10.7091 9.17014 11.0537 9.371 11.3288 9.49557C11.9963 9.79339 12.7222 9.97178 13.5242 9.97178C13.6171 9.97178 13.5984 9.97178 13.6951 9.9679C15.1224 9.90547 16.3948 9.33424 17.3124 8.3556C18.1815 7.4262 18.6531 6.36502 18.6575 5.1088V5.07135C18.6567 5.00118 18.6551 4.93103 18.6524 4.86092ZM23.4378 9.7121C22.789 9.7121 22.2007 9.63331 21.6725 9.47587C21.1443 9.31843 20.6934 9.06985 20.3198 8.72888C19.9448 8.38764 19.656 7.95346 19.4525 7.42689C19.249 6.90019 19.1473 6.26528 19.1473 5.52537V0.596225H22.1158V5.48597C22.1158 6.04028 22.2426 6.44173 22.4956 6.69225C22.7494 6.94333 23.0716 7.06873 23.4623 7.06873C23.8616 7.06873 24.1857 6.95193 24.4358 6.71777C24.6844 6.48362 24.8099 6.09535 24.8099 5.54964V0.596086H27.7784V5.46045C27.7784 6.22658 27.6743 6.87785 27.4663 7.41371C27.2584 7.95027 26.9652 8.38847 26.5877 8.72944C26.2084 9.07068 25.7519 9.31843 25.215 9.47656C24.678 9.63331 24.0858 9.71196 23.4378 9.71196V9.7121Z" fill="white"/>
</svg>
