<svg width="678" height="678" viewBox="0 0 678 678" fill="none" xmlns="http://www.w3.org/2000/svg">
<g clip-path="url(#clip0_187_55)">
<path d="M186.684 184.466L142.892 140.674L143.077 457.222L143.601 472.017C143.818 478.978 145.11 486.834 147.264 494.975L494.26 617.333L580.999 578.903L581.03 578.797L186.684 184.466Z" fill="#00D2B8"/>
<path d="M147.264 494.975L147.285 494.996C147.264 494.853 147.19 494.695 147.19 494.546C147.19 494.695 147.211 494.832 147.264 494.975V494.975ZM580.999 578.903L494.261 617.333L147.285 494.996C153.913 520.426 168.586 549.011 184.376 564.642L297.614 677.234L549.397 677.562L581.031 578.797L580.999 578.903V578.903Z" fill="#55DDCA"/>
<path d="M8.03039 344.382C-3.18115 356.35 2.38756 381.039 20.4383 399.227L98.2997 477.734L147.264 494.975C145.11 486.834 143.818 478.978 143.601 472.017L143.077 457.222L142.892 140.674L8.03039 344.382V344.382Z" fill="#0081C6"/>
<path d="M497.109 144.739C488.968 142.659 481.16 141.372 474.082 141.15L458.445 140.61L142.892 140.652L581.074 578.798H581.111L619.594 491.974L497.109 144.739Z" fill="#0079B3"/>
<path d="M496.711 144.654C496.881 144.691 497.013 144.739 497.124 144.755L497.108 144.739C497.013 144.691 496.881 144.691 496.711 144.654ZM566.712 181.915C550.81 165.881 522.602 151.308 497.124 144.755L619.593 491.974L581.11 578.797H581.073L675.116 548.762L675.318 290.928L566.712 181.915V181.915Z" fill="#00A4E4"/>
<path d="M479.952 96.0708L401.466 18.1618C383.315 0.179993 358.615 -5.41518 346.679 5.76458L142.892 140.652L458.445 140.61L474.081 141.15C481.159 141.372 488.967 142.659 497.108 144.739L479.952 96.0708V96.0708Z" fill="#00D2B8"/>
</g>
<defs>
<clipPath id="clip0_187_55">
<rect width="677.562" height="677.562" fill="white"/>
</clipPath>
</defs>
</svg>
