<svg width="512" height="512" viewBox="0 0 512 512" fill="none" xmlns="http://www.w3.org/2000/svg">
<path d="M147.1 1.59765C134.9 3.49765 120.3 8.49765 110.4 14.0976C99.5 20.1976 84.9 34.6976 78.6 45.5976C74.5 52.6976 73.5 53.7976 70.6 54.2976C61 55.7976 50.7 63.9976 46.2 73.7976L43.5 79.4977L43.2 137.998C43.1 170.198 43.2 197.498 43.5 198.698C44.1 201.398 47.2 202.498 50 200.998C51.9 199.998 52 198.998 52 186.998C52 161.198 54 158.198 78.3 146.998C87.6 142.698 93.4 136.498 99.9 124.198C107.2 110.298 113.1 105.998 124.9 105.998C132.4 105.998 133.7 106.598 148.7 116.698C175.6 134.798 203.4 145.498 234.3 149.598C244 150.898 250.5 151.098 266 150.498C276.7 150.098 287.8 149.798 290.6 149.798C299.1 149.798 306.9 154.798 311.5 163.098C314.3 168.198 314.5 169.198 314.8 182.998C315 190.998 315.7 198.098 316.2 198.698C317.5 200.298 321.2 200.398 322.8 198.798C324.4 197.198 324.5 85.6976 322.9 75.9976C320.2 58.8976 311.8 42.1976 299.3 28.9976C286.7 15.6976 275.7 8.99765 257.1 3.29765L248.5 0.597645L202.5 0.397645C166 0.197645 154.6 0.397645 147.1 1.59765Z" fill="#292929"/>
<path d="M119.3 125.198C118.2 126.498 116 130.098 114.5 133.198C107.3 148.798 95.3 159.398 77.5 166.098C69 169.298 68.8 169.798 69.2 196.598L69.5 219.198L75.1 223.998H291.9L297.5 219.198L297.8 197.798C298 183.898 297.7 175.198 297 172.698C295.4 167.398 291.8 165.998 282.5 167.098C272.4 168.298 246.6 168.198 235.2 166.898C203.2 163.498 166.4 149.898 141 132.198C137.4 129.698 133 126.598 131.1 125.298C126.7 122.298 122 122.298 119.3 125.198ZM162.9 188.598C164.7 190.898 165 192.698 165 201.998C165 211.798 164.8 212.798 162.8 214.698C161.5 215.798 159.7 216.998 158.8 217.298C156 218.298 151 215.998 149.5 212.898C147.5 209.098 147.5 193.898 149.5 189.998C151.2 186.698 152.2 186.198 157.2 186.098C160 185.998 161.3 186.598 162.9 188.598ZM216.1 188.598C218.2 190.798 218.5 192.298 218.9 200.098C219.3 210.898 218 214.698 213.4 216.598C209.7 218.098 207.6 217.698 204.3 214.698C202.2 212.798 202 211.798 202 201.598C202 191.698 202.2 190.398 204.2 188.298C207.3 184.998 212.9 185.198 216.1 188.598Z" fill="#292929"/>
<path d="M375.2 186.698C372.9 187.598 370.8 192.998 371.5 196.098C372.6 200.998 377 202.998 386.8 202.998H395.2L389.2 209.498C379.6 220.098 374 232.198 371.9 247.498C370.5 257.498 371.6 261.498 376.3 263.498C383.1 266.298 387.4 262.498 388.4 252.598C391.3 223.798 413.7 202.998 441.4 202.998C456.1 202.998 467.3 207.498 478 217.598C488.3 227.398 494.9 241.998 495 255.198C495 263.398 503.9 267.198 509.5 261.498C512.5 258.598 512.7 253.998 510.6 242.798C508.1 229.798 501.6 217.198 492.4 207.298L488.5 203.198L497.8 202.798C506.6 202.498 507.3 202.298 509.6 199.698C512.7 195.998 512.7 191.598 509.5 188.498L507.1 185.998L441.8 186.098C405.9 186.098 375.9 186.398 375.2 186.698Z" fill="#292929"/>
<path d="M49.3 241.998C37.1 244.498 27.1 253.798 23.5 266.298C22 271.498 22 277.098 23.9 342.198C26.5 432.198 26.1 425.898 29.4 428.698L32.1 430.998H335.1L337.5 428.598C338.8 427.298 340.1 424.698 340.4 422.898C340.7 420.998 341.8 386.398 342.9 345.998C344.3 293.898 344.6 271.198 343.9 267.998C341.5 257.598 334.4 248.898 324.1 244.098L318.5 241.498L186 241.298C113.1 241.298 51.6 241.598 49.3 241.998ZM195 305.598C207.8 308.498 220.2 318.098 226.4 329.898C230.9 338.598 232.2 343.698 232.1 353.498C232 395.798 181 417.798 150.4 388.798C139.7 378.698 134.8 367.498 134.8 352.998C134.8 338.698 139.7 327.198 149.8 317.798C162.4 305.998 178.1 301.698 195 305.598Z" fill="#292929"/>
<path d="M174.3 322.398C156.9 328.098 147.7 346.498 153.5 363.898C155.7 370.798 163.4 378.998 170.2 382.098C177.4 385.298 189.4 385.398 196.1 382.298C203 379.198 208.9 373.298 212.2 366.498C214.5 361.498 215 359.198 215 352.898C215 346.498 214.5 344.398 212 339.198C208.5 332.298 202.8 326.698 196.1 323.698C190.4 321.198 179.9 320.498 174.3 322.398Z" fill="#292929"/>
<path d="M424.6 253.198C421.2 256.198 382.6 309.298 380 314.498C374.5 325.698 375.4 337.098 382.8 349.298C386.7 355.898 386.6 355.898 398 352.598C406.3 350.198 476.9 350.298 485.5 352.698C496 355.598 496.7 355.398 501 348.198C507.5 337.598 508.5 326.398 503.9 316.098C502.1 311.998 465.9 261.398 459.7 254.398C456.7 250.898 453.3 250.098 451.2 252.198C450.3 253.098 450 260.798 450 280.798V308.298L453.4 312.098C460.4 319.798 460.2 329.898 452.9 336.498C448.4 340.498 445.6 341.398 439.3 340.698C431 339.798 425 333.098 425 324.798C425 319.198 426.9 314.298 430.6 310.898L433 308.698V280.998C433 260.898 432.7 253.098 431.8 252.198C430 250.398 427.4 250.798 424.6 253.198Z" fill="#292929"/>
<path d="M400.7 369.398C392.9 372.198 386.7 378.298 384.2 385.898C383.4 387.998 383 396.798 383 409.498V429.598L380 431.798C376 434.798 375.7 440.798 379.5 444.498L381.9 446.998H500.9L503.6 444.598C507.7 441.198 507.5 435.598 503.3 432.098L500.1 429.498L499.8 407.498C499.5 385.698 499.5 385.498 496.8 380.898C493.7 375.598 488.8 371.498 482.9 369.498C477.1 367.398 406.5 367.398 400.7 369.398Z" fill="#292929"/>
<path d="M19 448.898C12.1 450.998 6 456.198 2.4 462.998C0.8 465.898 0.5 468.798 0.5 479.998C0.5 491.198 0.8 494.098 2.4 496.998C5 501.898 9.8 506.798 14.5 509.298L18.5 511.498H348.5L352.5 509.298C357.2 506.798 362 501.898 364.6 496.998C366.2 494.098 366.5 491.198 366.5 479.998C366.5 468.798 366.2 465.898 364.6 462.998C362 458.098 357.2 453.198 352.5 450.698L348.5 448.498L185 448.298C95.1 448.198 20.4 448.498 19 448.898Z" fill="#292929"/>
<path d="M387.4 465.198C383.6 466.998 383 470.298 383 487.998C383 506.298 383.6 509.198 387.9 510.998C389.7 511.698 406.8 511.998 443.4 511.798L496.2 511.498L498.1 509.098C499.8 506.998 500 504.998 500 487.798C500 469.098 500 468.898 497.5 466.498L495.1 463.998L442.3 464.098C408.1 464.098 388.7 464.498 387.4 465.198Z" fill="#292929"/>
</svg>
