<svg width="403" height="4062" viewBox="0 0 403 4062" fill="none" xmlns="http://www.w3.org/2000/svg">
<path d="M308.337 201.089C308.337 260.32 260.32 308.337 201.089 308.337C141.858 308.337 93.8416 260.32 93.8416 201.089C93.8416 141.858 141.858 93.8416 201.089 93.8416C260.32 93.8416 308.337 141.858 308.337 201.089Z" fill="white"/>
<path d="M201.089 3968.16C260.32 3968.16 308.337 3920.14 308.337 3860.91C308.337 3801.68 260.32 3753.66 201.089 3753.66C141.858 3753.66 93.8416 3801.68 93.8416 3860.91C93.8416 3920.14 141.858 3968.16 201.089 3968.16Z" fill="white"/>
<path fill-rule="evenodd" clip-rule="evenodd" d="M227.901 400.406C326.283 387.298 402.178 303.057 402.178 201.089C402.178 90.0307 312.148 0 201.089 0C90.0307 0 0 90.0307 0 201.089C0 307.643 82.8751 394.84 187.683 401.738V3660.26C82.8751 3667.16 0 3754.36 0 3860.91C0 3971.97 90.0307 4062 201.089 4062C312.148 4062 402.178 3971.97 402.178 3860.91C402.178 3758.94 326.283 3674.7 227.901 3661.59V400.406ZM201.089 348.554C282.532 348.554 348.554 282.532 348.554 201.089C348.554 119.646 282.532 53.6238 201.089 53.6238C119.646 53.6238 53.6238 119.646 53.6238 201.089C53.6238 282.532 119.646 348.554 201.089 348.554ZM348.554 3860.91C348.554 3942.35 282.532 4008.38 201.089 4008.38C119.646 4008.38 53.6238 3942.35 53.6238 3860.91C53.6238 3779.47 119.646 3713.45 201.089 3713.45C282.532 3713.45 348.554 3779.47 348.554 3860.91Z" fill="white"/>
</svg>
