<svg width="320" height="320" viewBox="0 0 320 320" fill="none" xmlns="http://www.w3.org/2000/svg">
<path d="M175 15C175 6.71573 168.284 0 160 0C151.716 0 145 6.71573 145 15H175ZM160 305L149.393 315.607C152.206 318.42 156.022 320 160 320C163.978 320 167.794 318.42 170.607 315.607L160 305ZM315.607 170.607C321.464 164.749 321.464 155.251 315.607 149.393C309.749 143.536 300.251 143.536 294.393 149.393L315.607 170.607ZM25.6066 149.393C19.7487 143.536 10.2513 143.536 4.3934 149.393C-1.46447 155.251 -1.46447 164.749 4.3934 170.607L25.6066 149.393ZM145 15V305H175V15H145ZM294.393 149.393L149.393 294.393L170.607 315.607L315.607 170.607L294.393 149.393ZM170.607 294.393L25.6066 149.393L4.3934 170.607L149.393 315.607L170.607 294.393Z" fill="white"/>
</svg>
