<svg version="1.2" xmlns="http://www.w3.org/2000/svg" viewBox="0 0 302 304" width="302" height="304">
	<title>dribbble-ball-mark-seeklogo-ai</title>
	<defs>
		<clipPath clipPathUnits="userSpaceOnUse" id="cp1">
			<path d="m151 298.42c-80.84 0-146.61-65.69-146.61-146.42c0-80.73 65.77-146.42 146.61-146.42c80.84 0 146.61 65.69 146.61 146.42c0 80.73-65.77 146.42-146.61 146.42zm123.64-126.38c-4.28-1.35-38.76-11.62-78-5.34c16.38 44.95 23.05 81.56 24.33 89.16c28.09-18.97 48.09-49.02 53.67-83.82zm-74.72 95.27c-1.87-10.97-9.14-49.21-26.72-94.84q-0.41 0.14-0.82 0.28c-70.64 24.58-95.99 73.5-98.25 78.1c21.24 16.54 47.92 26.4 76.87 26.4c17.35 0 33.88-3.54 48.92-9.94zm-141.96-31.5c2.84-4.85 37.21-61.68 101.8-82.53q2.44-0.79 4.93-1.48c-3.14-7.11-6.57-14.22-10.15-21.23c-62.54 18.69-123.23 17.91-128.7 17.8q-0.07 1.9-0.07 3.82c0 32.12 12.19 61.45 32.19 83.62zm-29.54-109.23c5.6 0.07 57.19 0.29 115.77-15.24c-20.75-36.84-43.13-67.81-46.43-72.33c-35.04 16.5-61.22 48.76-69.34 87.57zm93.23-95.97c3.47 4.62 26.21 35.56 46.73 73.21c44.53-16.67 63.38-41.97 65.63-45.18c-22.11-19.59-51.19-31.51-83.01-31.51c-10.1 0-19.93 1.21-29.35 3.48zm126.29 42.49c-2.64 3.57-23.63 30.44-69.93 49.32c2.91 5.95 5.71 12.01 8.31 18.11q1.38 3.24 2.69 6.45c41.67-5.23 83.08 3.16 87.2 4.03c-0.27-29.52-10.83-56.62-28.27-77.91z" />
		</clipPath>
	</defs>
	<style>
		.s0 { fill: #ffffff } 
	</style>
	<g id="Layer 1">
		<g id="&lt;Group&gt;">
			<g id="&lt;Clip Group&gt;" clip-path="url(#cp1)">
				<path id="&lt;Compound Path&gt;" fill-rule="evenodd" class="s0" d="m151 298.4c-80.8 0-146.6-65.7-146.6-146.4c0-80.7 65.8-146.4 146.6-146.4c80.8 0 146.6 65.7 146.6 146.4c0 80.7-65.8 146.4-146.6 146.4zm123.6-126.4c-4.2-1.3-38.7-11.6-78-5.3c16.4 44.9 23.1 81.6 24.4 89.2c28.1-19 48.1-49.1 53.6-83.9zm-74.7 95.3c-1.8-11-9.1-49.2-26.7-94.8q-0.4 0.1-0.8 0.3c-70.7 24.5-96 73.5-98.3 78.1c21.3 16.5 48 26.4 76.9 26.4c17.3 0 33.9-3.6 48.9-10zm-141.9-31.5c2.8-4.8 37.2-61.7 101.8-82.5q2.4-0.8 4.9-1.5c-3.2-7.1-6.6-14.2-10.2-21.2c-62.5 18.7-123.2 17.9-128.7 17.8q0 1.9 0 3.8c0 32.1 12.2 61.4 32.2 83.6zm-29.6-109.2c5.6 0.1 57.2 0.3 115.8-15.3c-20.8-36.8-43.1-67.8-46.4-72.3c-35.1 16.5-61.3 48.8-69.4 87.6zm93.3-96c3.4 4.6 26.2 35.6 46.7 73.2c44.5-16.6 63.4-42 65.6-45.2c-22.1-19.6-51.2-31.5-83-31.5c-10.1 0-19.9 1.2-29.3 3.5zm126.2 42.5c-2.6 3.6-23.6 30.4-69.9 49.3c2.9 6 5.7 12 8.3 18.1q1.4 3.3 2.7 6.5c41.7-5.2 83.1 3.1 87.2 4c-0.3-29.5-10.8-56.6-28.3-77.9z" />
			</g>
		</g>
	</g>
</svg>