<svg width="678" height="678" viewBox="0 0 678 678" fill="none" xmlns="http://www.w3.org/2000/svg">
<g clip-path="url(#clip0_187_94)">
<path d="M677.562 525.005C652.916 531.272 637.671 525.28 623.992 504.742L526.72 370.161L512.661 351.528L399.063 505.186C386.083 523.671 372.469 531.717 348.246 525.174L493.71 329.909L358.282 153.531C381.573 149 397.665 151.308 411.958 172.164L512.851 308.418L614.485 172.905C627.507 154.421 641.503 147.391 664.879 154.209L612.368 223.828L541.224 316.464C532.755 327.051 533.919 334.292 541.711 344.519L677.562 525.005ZM0.169391 326.649L12.0691 268.124C44.465 152.303 177.225 104.175 268.78 175.743C322.287 217.836 335.584 277.377 332.937 344.075H31.3373C26.8061 464.13 113.216 536.587 223.384 499.618C262.026 486.638 284.788 456.381 296.179 418.522C301.96 399.55 311.53 396.586 329.359 402.006C320.254 449.351 299.715 488.904 256.309 513.656C191.454 550.71 98.8817 538.726 50.182 487.231C21.1738 457.355 9.18944 419.496 3.81129 379.011C2.96433 372.321 1.27043 365.947 0 359.532C0.112927 348.578 0.169391 337.624 0.169391 326.67V326.649ZM31.8878 318.603H304.437C302.659 231.79 248.602 170.132 174.726 169.602C93.6306 168.967 35.4026 229.164 31.8878 318.603Z" fill="#FDFDFD"/>
</g>
<defs>
<clipPath id="clip0_187_94">
<rect width="677.562" height="677.562" fill="white"/>
</clipPath>
</defs>
</svg>
