<svg width="456" height="687" viewBox="0 0 456 687" fill="none" xmlns="http://www.w3.org/2000/svg">
<g clip-path="url(#clip0_187_45)">
<path d="M113.926 686.923C176.788 686.923 227.806 635.633 227.806 572.436V457.949H113.926C51.0639 457.949 0.0455322 509.239 0.0455322 572.436C0.0455322 635.633 51.0639 686.923 113.926 686.923Z" fill="#0ACF83"/>
<path d="M0.0455322 343.461C0.0455322 280.265 51.0639 228.974 113.926 228.974H227.806V457.948H113.926C51.0639 457.948 0.0455322 406.658 0.0455322 343.461Z" fill="#A259FF"/>
<path d="M0.0455322 114.487C0.0455322 51.2902 51.0639 0 113.926 0H227.806V228.974H113.926C51.0639 228.974 0.0455322 177.684 0.0455322 114.487Z" fill="#F24E1E"/>
<path d="M227.806 0H341.687C404.549 0 455.567 51.2902 455.567 114.487C455.567 177.684 404.549 228.974 341.687 228.974H227.806V0Z" fill="#FF7262"/>
<path d="M455.567 343.461C455.567 406.658 404.549 457.948 341.687 457.948C278.825 457.948 227.806 406.658 227.806 343.461C227.806 280.265 278.825 228.974 341.687 228.974C404.549 228.974 455.567 280.265 455.567 343.461Z" fill="#1ABCFE"/>
</g>
<defs>
<clipPath id="clip0_187_45">
<rect width="455.612" height="686.923" fill="white"/>
</clipPath>
</defs>
</svg>
