<svg width="684" height="561" viewBox="0 0 684 561" fill="none" xmlns="http://www.w3.org/2000/svg">
<path d="M680.558 273.424C680.699 273.44 680.857 273.455 680.998 273.455C682.096 273.455 683.098 272.656 683.304 271.526C683.537 270.252 682.691 269.029 681.42 268.778C649.289 262.859 625.782 256.315 546.468 256.975C551.411 238.687 554.081 217.058 554.613 191.442C554.488 121.985 521.243 97.4195 514.855 85.8846C524.273 33.3008 513.285 9.36322 508.183 1.15482C489.348 -5.54812 442.652 18.3909 417.145 35.2636C375.549 23.099 287.648 24.2755 254.686 38.4028C193.862 -5.15521 161.686 1.51456 161.686 1.51456C161.686 1.51456 140.889 38.7952 156.193 93.339C136.18 118.847 121.268 136.897 121.268 184.739C121.268 211.69 124.438 235.815 131.595 256.88C99.7627 256.802 33.0434 261.086 1.79172 268.809C0.536484 269.123 -0.234558 270.41 0.0643086 271.666C0.332593 272.734 1.30449 273.457 2.35678 273.457C2.54444 273.457 2.73248 273.441 2.92014 273.394C34.4526 265.593 103.402 261.354 133.289 261.606C134.999 266.143 136.916 270.538 139.033 274.792C62.2006 276.831 41.4844 287.803 9.2291 295.855C6.89099 296.453 4.59865 297.017 2.37035 297.567C1.11512 297.882 0.331564 299.168 0.642941 300.423C0.911226 301.491 1.86783 302.213 2.93541 302.212C3.12307 302.212 3.31111 302.196 3.49877 302.149C5.72845 301.585 8.0197 301.02 10.3745 300.425C42.7257 292.342 63.7203 281.306 141.48 279.438C164.335 320.94 208.409 346.758 282.747 353.9C272.137 361.953 259.391 377.242 257.634 394.917C244.293 403.551 217.468 406.39 196.606 399.814C167.38 390.585 156.188 332.714 112.426 340.953C102.946 342.743 104.829 348.988 113.023 354.294C126.365 362.926 138.923 373.725 148.607 396.721C156.048 414.38 171.68 445.928 221.124 445.928C240.745 445.928 254.495 443.575 254.495 443.575C254.495 443.575 254.871 488.637 254.871 506.155C254.871 526.356 227.606 532.055 227.606 541.771C227.606 545.616 236.632 545.977 243.884 545.977C258.214 545.977 288.038 534.015 288.038 513.016C288.038 496.33 288.305 440.23 288.305 430.42C288.305 408.963 299.809 402.168 299.809 402.168C299.809 402.168 301.238 516.702 297.062 532.054C292.165 550.106 283.328 547.547 283.328 555.6C283.328 567.576 319.228 558.535 331.125 532.243C340.323 511.775 336.306 399.419 336.306 399.419L346.115 399.217C346.115 399.217 346.665 450.652 346.336 474.164C345.99 498.508 344.342 529.307 358.798 543.827C368.295 553.37 399.092 570.119 399.092 554.815C399.092 545.914 382.218 538.598 382.218 514.521C382.218 488.323 382.218 411.066 382.218 403.737C395.685 403.737 393.66 440.166 393.66 440.166L394.649 507.849C394.649 507.849 391.684 532.51 421.319 542.838C431.774 546.495 454.155 547.482 455.207 541.345C456.259 535.192 428.256 526.04 428.005 506.939C427.849 495.292 428.524 488.496 428.524 437.875C428.524 387.254 421.727 368.545 398.041 353.632C471.138 346.113 516.375 328.031 538.43 279.592C563.764 280.424 616.812 283.015 678.468 301.866C678.686 301.943 678.924 301.976 679.16 301.976C680.165 301.976 681.091 301.316 681.405 300.311C681.78 299.056 681.09 297.737 679.834 297.36C619.026 278.761 567.595 275.856 540.441 274.946C542.151 270.74 543.722 266.329 545.117 261.699C624.89 260.961 648.459 267.492 680.558 273.424ZM126.758 350.428C123.833 350.428 121.46 348.849 121.46 346.897C121.46 344.947 123.833 343.368 126.758 343.368C129.682 343.368 132.055 344.948 132.055 346.897C132.055 348.847 129.684 350.428 126.758 350.428ZM143.239 359.389C140.315 359.389 137.942 357.807 137.942 355.858C137.942 353.907 140.315 352.327 143.239 352.327C146.164 352.327 148.537 353.907 148.537 355.858C148.537 357.809 146.165 359.389 143.239 359.389ZM148.013 367.826C148.013 365.876 150.386 364.295 153.31 364.295C156.235 364.295 158.608 365.877 158.608 367.826C158.608 369.778 156.235 371.357 153.31 371.357C150.386 371.357 148.013 369.778 148.013 367.826ZM162.141 384.897C159.213 384.897 156.843 383.316 156.843 381.364C156.843 379.414 159.215 377.833 162.141 377.833C165.066 377.833 167.438 379.415 167.438 381.364C167.438 383.316 165.066 384.897 162.141 384.897ZM172.212 397.649C169.287 397.649 166.914 396.071 166.914 394.119C166.914 392.169 169.287 390.588 172.212 390.588C175.136 390.588 177.509 392.17 177.509 394.119C177.509 396.07 175.138 397.649 172.212 397.649ZM185.816 408.507C182.891 408.507 180.518 406.925 180.518 404.976C180.518 403.024 182.891 401.443 185.816 401.443C188.74 401.443 191.113 403.024 191.113 404.976C191.113 406.925 188.74 408.507 185.816 408.507ZM204.848 415.569C201.923 415.569 199.55 413.99 199.55 412.038C199.55 410.088 201.923 408.507 204.848 408.507C207.772 408.507 210.145 410.089 210.145 412.038C210.145 413.99 207.774 415.569 204.848 415.569ZM223.944 415.569C221.019 415.569 218.647 413.99 218.647 412.038C218.647 410.088 221.019 408.507 223.944 408.507C226.869 408.507 229.242 410.089 229.242 412.038C229.242 413.99 226.869 415.569 223.944 415.569ZM243.107 412.561C240.182 412.561 237.809 410.979 237.809 409.03C237.809 407.081 240.182 405.498 243.107 405.498C246.034 405.498 248.405 407.081 248.405 409.03C248.405 410.979 246.034 412.561 243.107 412.561ZM393.151 337.379C377.351 337.903 360.965 338.17 344.459 338.17C327.792 338.17 311.703 337.9 296.643 337.362C216.334 334.547 172.105 300.651 172.105 241.93C172.105 235.832 173.395 214.396 190.01 194.476C206.159 175.116 230.902 164.879 261.567 164.879C263.656 164.879 267.396 165.108 274.984 165.578C291.244 166.59 318.461 168.281 345.409 168.281C369.812 168.281 394.493 166.48 407.754 165.51C413.961 165.054 416.452 164.879 418.056 164.879C483.292 164.879 506.532 206.559 506.532 245.563C506.531 285.753 486.86 334.309 393.151 337.379Z" fill="#222222"/>
<path d="M110.801 388.168C123.441 388.168 111.016 368.562 110.801 359.391C110.742 368.316 98.1606 388.168 110.801 388.168Z" fill="#222222"/>
<path d="M356.97 303.797C355.671 303.797 354.617 304.851 354.617 306.151C354.617 311.339 348.519 317.14 340.36 317.14C339.184 317.14 338.052 317.008 336.968 316.775C334.26 316.192 331.867 314.967 329.909 313.527C329.517 313.241 329.143 312.945 328.787 312.643C327.719 311.737 326.818 310.783 326.109 309.877C324.925 308.365 324.273 306.982 324.273 306.151C324.273 304.851 323.219 303.797 321.918 303.797C320.618 303.797 319.564 304.851 319.564 306.151C319.564 306.822 319.702 307.572 319.965 308.369C320.36 309.563 321.041 310.865 321.967 312.173C322.896 313.48 324.072 314.794 325.458 316.015C326.844 317.232 328.44 318.358 330.214 319.29C332.43 320.452 334.917 321.309 337.607 321.665C338.504 321.783 339.423 321.847 340.361 321.847C345.252 321.847 349.493 320.265 352.718 317.863C353.178 317.519 353.618 317.16 354.036 316.785C354.872 316.037 355.621 315.229 356.275 314.381C357.905 312.264 358.938 309.893 359.236 307.552C359.295 307.084 359.327 306.617 359.327 306.152C359.326 304.851 358.271 303.797 356.97 303.797Z" fill="#222222"/>
<path d="M333.372 291.192C333.956 292.054 334.701 292.799 335.563 293.383C335.887 293.6 336.226 293.797 336.581 293.968C337.29 294.309 338.057 294.55 338.863 294.674C339.265 294.735 339.677 294.767 340.098 294.767C341.776 294.767 343.339 294.257 344.634 293.383C345.174 293.019 345.666 292.591 346.102 292.11C346.711 291.441 347.157 290.642 347.515 289.797C347.93 288.823 348.209 287.781 348.209 286.655C348.209 282.177 344.577 278.545 340.098 278.545C337.859 278.545 335.831 279.453 334.363 280.921C334.299 280.985 334.251 281.064 334.19 281.13C333.773 281.576 333.419 282.073 333.109 282.606C332.678 283.35 332.33 284.15 332.152 285.021C332.045 285.549 331.987 286.094 331.987 286.655C331.987 287.215 332.046 287.761 332.152 288.29C332.369 289.347 332.79 290.329 333.372 291.192Z" fill="#222222"/>
<path d="M273.32 206.139C271.66 204.097 269.866 202.288 267.961 200.746C266.056 199.203 264.039 197.928 261.934 196.954C259.828 195.978 257.634 195.301 255.374 194.96C254.244 194.789 253.097 194.7 251.938 194.7C233.371 194.7 218.321 217.129 218.321 244.799C218.321 272.467 233.371 291.756 251.938 291.756C253.097 291.756 254.244 291.681 255.374 291.534C257.634 291.237 259.828 290.65 261.934 289.795C264.039 288.938 266.056 287.813 267.961 286.438C269.866 285.064 271.66 283.443 273.32 281.594C274.98 279.745 276.506 277.669 277.876 275.388C282.673 267.405 285.553 256.904 285.553 244.799C285.553 232.694 282.672 221.593 277.876 212.932C276.506 210.456 274.98 208.182 273.32 206.139Z" fill="#222222"/>
<path d="M433.622 194.7C415.055 194.7 400.005 217.129 400.005 244.799C400.005 272.467 415.055 291.756 433.622 291.756C452.188 291.756 467.237 272.467 467.237 244.799C467.237 217.129 452.188 194.7 433.622 194.7Z" fill="#222222"/>
</svg>
