<svg width="718" height="697" viewBox="0 0 718 697" fill="none" xmlns="http://www.w3.org/2000/svg">
<g clip-path="url(#clip0_187_14)">
<path d="M127.636 0H590.287C660.431 0 717.143 56.5726 717.143 126.544V570.192C717.143 640.164 660.431 696.736 590.287 696.736H127.636C57.4923 696.736 0.780273 640.164 0.780273 570.192V126.544C0.780273 56.5726 57.4923 0 127.636 0Z" fill="#330000"/>
<path d="M347.918 418.042H236.881L214.197 488.013C213.6 490.693 211.212 492.479 208.525 492.182H152.41C149.127 492.182 148.232 490.395 149.127 486.822L245.239 210.807C246.135 207.83 247.03 204.555 248.224 200.982C249.418 194.729 250.015 188.178 250.015 181.628C249.716 180.139 250.91 178.65 252.403 178.353C252.701 178.353 253 178.353 253.298 178.353H329.71C332.098 178.353 333.292 179.246 333.59 180.735L442.537 487.418C443.433 490.693 442.537 492.182 439.552 492.182H377.169C375.08 492.479 372.99 490.991 372.393 488.906L347.918 418.042ZM254.194 357.598H330.009C328.218 351.346 325.83 343.902 323.144 336.16C320.457 328.121 317.771 319.486 315.084 310.554C312.1 301.324 309.413 292.391 306.428 283.161C303.444 273.93 300.757 265.296 298.369 256.661C295.981 248.324 293.892 240.582 291.803 233.436H291.206C288.519 246.24 285.236 259.043 281.057 271.846C276.58 286.138 272.103 301.026 267.327 315.913C263.148 331.099 258.671 345.093 254.194 357.598Z" fill="#FF9A00"/>
<path d="M507.607 229.268C497.757 229.566 488.205 225.695 481.042 218.847C474.177 211.403 470.595 201.577 470.893 191.454C470.595 181.33 474.475 171.802 481.639 164.954C488.802 158.105 498.354 154.532 508.204 154.532C519.845 154.532 528.799 158.105 535.366 164.954C541.933 172.1 545.514 181.628 545.216 191.454C545.514 201.577 541.933 211.403 534.769 218.847C527.904 225.993 517.755 229.863 507.607 229.268ZM474.177 487.715V258.447C474.177 255.47 475.371 254.279 478.057 254.279H537.157C539.843 254.279 541.037 255.768 541.037 258.447V487.715C541.037 490.991 539.843 492.479 537.157 492.479H478.654C475.669 492.479 474.177 490.693 474.177 487.715Z" fill="#FF9A00"/>
</g>
<defs>
<clipPath id="clip0_187_14">
<rect width="716.363" height="696.736" fill="white" transform="translate(0.780273)"/>
</clipPath>
</defs>
</svg>
