<svg width="678" height="678" viewBox="0 0 678 678" fill="none" xmlns="http://www.w3.org/2000/svg">
<g clip-path="url(#clip0_187_96)">
<path d="M0 0H677.562V677.562H0V0Z" fill="#F0DB4F"/>
<path d="M622.108 515.965C617.148 485.05 596.989 459.094 537.284 434.876C516.544 425.344 493.422 418.518 486.531 402.802C484.083 393.656 483.761 388.503 485.307 382.964C489.751 364.995 511.199 359.391 528.202 364.544C539.151 368.215 549.521 376.653 555.768 390.114C585.009 371.179 584.945 371.307 605.362 358.297C597.891 346.704 593.897 341.357 589.002 336.399C571.419 316.755 547.46 306.643 509.138 307.415C502.504 308.253 495.806 309.154 489.171 309.992C470.043 314.822 451.815 324.87 441.124 338.331C409.049 374.721 418.195 438.419 457.226 464.633C495.677 493.488 552.162 500.057 559.375 527.044C566.395 560.084 535.094 570.775 503.985 566.976C481.056 562.21 468.304 550.552 454.52 529.362C429.145 544.047 429.145 544.047 403.06 559.054C409.243 572.579 415.747 578.698 426.118 590.42C475.196 640.207 598.019 637.759 620.047 562.403C620.948 559.826 626.874 542.565 622.108 515.965V515.965ZM368.344 311.408H304.967C304.967 366.154 304.71 420.514 304.71 475.26C304.71 510.104 306.514 542.05 300.846 551.84C291.571 571.097 267.547 568.714 256.598 564.978C245.456 559.503 239.788 551.71 233.219 540.697C231.415 537.541 230.063 535.094 229.611 534.901C212.415 545.399 195.282 555.961 178.085 566.46C186.652 584.043 199.275 599.308 215.442 609.226C239.594 623.717 272.055 628.161 305.998 620.368C328.09 613.927 347.154 600.596 357.137 580.308C371.564 553.708 368.473 521.504 368.344 485.887C368.666 427.792 368.344 369.696 368.344 311.408Z" fill="#323330"/>
</g>
<defs>
<clipPath id="clip0_187_96">
<rect width="677.562" height="677.562" rx="3" fill="white"/>
</clipPath>
</defs>
</svg>
