<svg width="575" height="573" viewBox="0 0 575 573" fill="none" xmlns="http://www.w3.org/2000/svg">
<path d="M124.674 572.247H2.0451L2.0451 163.485L124.674 163.485L124.674 572.247ZM574.312 572.247L451.683 572.247V353.887C451.683 296.987 431.409 268.66 391.228 268.66C359.385 268.66 339.192 284.52 329.055 316.28C329.055 367.866 329.055 572.247 329.055 572.247H206.426C206.426 572.247 208.061 204.361 206.426 163.485L303.221 163.485L310.701 245.238H313.236C338.375 204.361 378.556 176.647 433.657 176.647C475.555 176.647 509.442 188.297 535.316 217.564C561.354 246.873 574.312 286.196 574.312 341.419L574.312 572.247Z" fill="white"/>
<path d="M63.3581 122.629C98.3499 122.629 126.716 95.1773 126.716 61.3143C126.716 27.4514 98.3499 0 63.3581 0C28.3664 0 0 27.4514 0 61.3143C0 95.1773 28.3664 122.629 63.3581 122.629Z" fill="white"/>
</svg>
