<svg width="947" height="799" viewBox="0 0 947 799" fill="none" xmlns="http://www.w3.org/2000/svg">
<path d="M712.073 0.935791H912.575C921.882 0.935791 929.919 3.97604 936.687 10.0565C943.455 16.137 946.839 23.3576 946.839 31.7183V768.218C946.839 776.578 943.455 783.799 936.687 789.879C929.919 795.96 921.882 799 912.575 799H682.886C673.58 799 665.543 795.96 658.775 789.879C652.007 783.799 648.623 776.578 648.623 768.218V455.832L564.868 578.962C551.332 597.964 535.681 607.465 517.915 607.465H429.085C411.319 607.465 395.668 597.964 382.132 578.962L298.377 455.832V768.218C298.377 776.578 294.993 783.799 288.225 789.879C281.457 795.96 273.42 799 264.114 799H34.4244C25.1183 799 17.0813 795.96 10.3133 789.879C3.54527 783.799 0.161255 776.578 0.161255 768.218V31.7183C0.161255 23.3576 3.54527 16.137 10.3133 10.0565C17.0813 3.97604 25.1183 0.935791 34.4244 0.935791H234.927C258.615 0.935791 276.804 11.1966 289.494 31.7183L473.5 305.34L657.506 31.7183C670.196 11.1966 688.385 0.935791 712.073 0.935791Z" fill="white"/>
<path d="M637.017 501.498V771.771C637.017 784.107 626.633 794.108 613.824 794.108H333.177C320.368 794.108 309.983 784.107 309.983 771.771V501.498L383.624 610.067C396.438 628.411 413.949 628.41 430.778 628.409H516.223C533.013 628.41 547.814 628.411 560.629 610.067L637.017 501.498Z" fill="#05E3BE"/>
</svg>
