<svg width="611" height="678" viewBox="0 0 611 678" fill="none" xmlns="http://www.w3.org/2000/svg">
<path d="M277.893 8.60173C294.499 -0.973048 316.128 -1.0163 332.72 8.60173C416.193 56.1128 499.691 103.549 583.149 151.089C598.846 159.996 609.346 177.594 609.187 195.813V481.658C609.303 500.632 597.766 518.65 581.205 527.355C498.007 574.604 414.852 621.911 331.668 669.16C314.719 678.922 292.655 678.17 276.235 667.608C251.292 653.043 226.307 638.55 201.362 623.999C196.264 620.938 190.518 618.502 186.919 613.523C190.101 609.203 195.79 608.665 200.412 606.779C210.824 603.444 220.386 598.091 229.951 592.896C232.37 591.229 235.323 591.868 237.641 593.36C258.97 605.678 280.111 618.355 301.512 630.556C306.077 633.211 310.7 629.686 314.602 627.495C396.245 581.015 477.988 534.71 559.616 488.215C562.641 486.749 564.313 483.515 564.067 480.178C564.124 385.884 564.081 291.573 564.096 197.279C564.441 193.492 562.266 190.011 558.867 188.461C475.958 141.428 393.091 94.323 310.196 47.2781C308.76 46.2835 307.059 45.7498 305.316 45.7472C303.573 45.7447 301.87 46.2733 300.431 47.2636C217.536 94.323 134.684 141.471 51.7889 188.502C48.4018 190.054 46.1287 193.478 46.5318 197.279C46.5461 291.573 46.5318 385.884 46.5318 480.192C46.388 481.821 46.7431 483.454 47.5491 484.873C48.3551 486.292 49.5734 487.428 51.0399 488.129C73.1608 500.764 95.3104 513.311 117.446 525.904C129.916 532.665 145.227 536.682 158.966 531.502C171.09 527.122 179.589 514.659 179.357 501.692C179.472 407.948 179.3 314.19 179.443 220.46C179.14 216.299 183.059 212.86 187.076 213.252C197.705 213.18 208.348 213.108 218.977 213.281C223.413 213.18 226.466 217.661 225.918 221.854C225.875 316.191 226.032 410.531 225.846 504.868C225.875 530.01 215.621 557.367 192.534 569.669C164.092 584.511 128.938 581.363 100.839 567.132C76.5145 554.902 53.3011 540.469 29.408 527.367C12.8042 518.71 1.3239 500.62 1.44077 481.66V195.813C1.26665 177.216 12.184 159.299 28.3704 150.522C111.554 103.235 194.723 55.911 277.893 8.60173Z" fill="#8CC84B"/>
<path d="M350.462 206.608C386.742 204.256 425.581 205.215 458.228 223.218C483.504 237.015 497.518 265.97 497.964 294.257C497.258 298.072 493.298 300.177 489.682 299.915C479.156 299.901 468.628 300.059 458.101 299.843C453.636 300.016 451.041 295.869 450.481 291.892C447.456 278.358 440.129 264.953 427.482 258.425C408.068 248.634 385.558 249.127 364.389 249.331C348.935 250.157 332.317 251.505 319.224 260.66C309.173 267.594 306.12 281.592 309.707 292.865C313.089 300.96 322.366 303.572 329.956 305.979C373.677 317.498 420.009 316.352 462.896 331.51C480.652 337.69 498.021 349.704 504.099 368.43C512.049 393.529 508.564 423.529 490.837 443.678C476.461 460.259 455.523 469.284 434.64 474.185C406.859 480.425 378.028 480.584 349.815 477.813C323.286 474.767 295.679 467.746 275.2 449.538C257.687 434.221 249.133 410.355 249.983 387.32C250.185 383.43 254.03 380.718 257.73 381.037C268.33 380.951 278.93 380.922 289.53 381.052C293.764 380.747 296.903 384.432 297.12 388.452C299.076 401.347 303.887 414.882 315.05 422.527C336.594 436.528 363.626 435.569 388.294 435.961C408.731 435.048 431.673 434.771 448.35 421.165C457.15 413.404 459.757 400.42 457.379 389.25C454.803 379.819 445.009 375.425 436.598 372.551C393.437 358.798 346.588 363.788 303.844 348.236C286.491 342.058 269.711 330.379 263.044 312.421C253.742 287.005 258.004 255.568 277.59 236.099C296.686 216.733 324.252 209.275 350.462 206.606V206.608Z" fill="#8CC84B"/>
</svg>
