<svg width="472" height="590" viewBox="0 0 472 590" fill="none" xmlns="http://www.w3.org/2000/svg">
<path d="M207.366 2.05437C154.91 8.81096 106.631 32.3976 69.2857 69.6202C25.3065 113.477 0 174.409 0 236.324C0 311.874 41.2766 398.359 118.67 485.089C155.524 526.365 226.653 590 235.866 590C242.868 590 289.305 550.443 326.404 512.975C403.675 434.967 452.2 355.485 466.819 283.005C471.978 256.962 472.961 234.727 469.89 209.174C458.342 111.757 388.565 31.9062 294.219 7.82818C268.052 1.0716 233.041 -1.13965 207.366 2.05437ZM268.789 62.3722C303.923 69.2517 335.004 85.836 360.556 111.511C386.354 137.186 402.692 167.898 409.94 203.892C412.889 218.756 412.889 252.171 409.94 267.527C395.69 340.866 340.04 396.516 267.192 410.152C250.731 413.223 218.913 413.346 203.557 410.275C167.809 403.15 136.729 386.565 111.177 360.89C85.3786 335.215 69.04 304.504 61.792 268.509C58.8437 253.522 58.8437 218.879 61.792 203.892C73.7082 144.188 113.511 95.4181 168.792 72.6914C181.445 67.5318 199.872 62.4951 213.14 60.6524C225.179 58.9325 256.627 59.9153 268.789 62.3722Z" fill="white"/>
<path d="M209.453 131.17L206.382 134.118V239.275V344.309H226.038H245.693V312.983V281.534L248.764 278.586C251.713 275.515 251.958 275.515 275.176 275.515C298.394 275.515 298.64 275.515 301.588 278.586L304.66 281.534V312.983V344.309H321.244C337.337 344.309 338.074 344.186 340.9 341.238L343.971 338.29V236.204V134.118L340.9 131.17L337.951 128.099H275.176H212.402L209.453 131.17ZM262.277 170.481C264.98 173.061 265.349 174.535 265.349 182.151C265.349 189.768 264.98 191.242 262.277 193.822C260.435 195.787 257.855 196.893 255.521 196.893C253.187 196.893 250.607 195.787 248.764 193.822C246.062 191.242 245.693 189.768 245.693 182.151C245.693 174.535 246.062 173.061 248.764 170.481C250.607 168.515 253.187 167.41 255.521 167.41C257.855 167.41 260.435 168.515 262.277 170.481ZM301.588 170.481C304.291 173.061 304.66 174.535 304.66 182.151C304.66 189.768 304.291 191.242 301.588 193.822C299.746 195.787 297.166 196.893 294.832 196.893C292.498 196.893 289.918 195.787 288.075 193.822C285.373 191.242 285.004 189.768 285.004 182.151C285.004 174.535 285.373 173.061 288.075 170.481C289.918 168.515 292.498 167.41 294.832 167.41C297.166 167.41 299.746 168.515 301.588 170.481ZM262.277 219.62C264.98 222.199 265.349 223.673 265.349 231.29C265.349 238.907 264.98 240.381 262.277 242.96C260.435 244.926 257.855 246.032 255.521 246.032C253.187 246.032 250.607 244.926 248.764 242.96C246.062 240.381 245.693 238.907 245.693 231.29C245.693 223.673 246.062 222.199 248.764 219.62C250.607 217.654 253.187 216.548 255.521 216.548C257.855 216.548 260.435 217.654 262.277 219.62ZM301.588 219.62C304.291 222.199 304.66 223.673 304.66 231.29C304.66 238.907 304.291 240.381 301.588 242.96C299.746 244.926 297.166 246.032 294.832 246.032C292.498 246.032 289.918 244.926 288.075 242.96C285.373 240.381 285.004 238.907 285.004 231.29C285.004 223.673 285.373 222.199 288.075 219.62C289.918 217.654 292.498 216.548 294.832 216.548C297.166 216.548 299.746 217.654 301.588 219.62Z" fill="white"/>
<path d="M130.832 180.309L127.76 183.257V260.773V338.29L130.832 341.238C133.78 344.309 133.78 344.309 160.315 344.309H186.727V260.773V177.237H160.315C133.78 177.237 133.78 177.237 130.832 180.309ZM164 219.62C166.703 222.199 167.071 223.673 167.071 231.29C167.071 238.907 166.703 240.381 164 242.96C162.158 244.926 159.578 246.032 157.244 246.032C154.91 246.032 152.33 244.926 150.487 242.96C147.784 240.381 147.416 238.907 147.416 231.29C147.416 223.673 147.784 222.199 150.487 219.62C152.33 217.654 154.91 216.548 157.244 216.548C159.578 216.548 162.158 217.654 164 219.62ZM164 268.758C166.703 271.338 167.071 272.812 167.071 280.429C167.071 288.045 166.703 289.519 164 292.099C162.158 294.065 159.578 295.17 157.244 295.17C154.91 295.17 152.33 294.065 150.487 292.099C147.784 289.519 147.416 288.045 147.416 280.429C147.416 272.812 147.784 271.338 150.487 268.758C152.33 266.793 154.91 265.687 157.244 265.687C159.578 265.687 162.158 266.793 164 268.758Z" fill="white"/>
</svg>
