<svg width="717" height="697" viewBox="0 0 717 697" fill="none" xmlns="http://www.w3.org/2000/svg">
<g clip-path="url(#clip0_187_35)">
<path d="M126.856 0H589.507C659.651 0 716.363 56.5726 716.363 126.544V570.192C716.363 640.164 659.651 696.736 589.507 696.736H126.856C56.712 696.736 0 640.164 0 570.192V126.544C0 56.5726 56.712 0 126.856 0Z" fill="#001E36"/>
<path d="M161.182 488.609V182.223C161.182 180.139 162.077 178.948 164.166 178.948C169.241 178.948 174.016 178.948 180.882 178.65C188.045 178.353 195.507 178.353 203.566 178.055C211.625 177.757 220.281 177.757 229.535 177.459C238.788 177.162 247.742 177.162 256.697 177.162C281.172 177.162 301.469 180.139 318.184 186.392C333.109 191.454 346.839 199.791 358.181 210.807C367.733 220.335 375.195 231.948 379.971 244.751C384.448 257.257 386.836 270.06 386.836 283.459C386.836 309.065 380.866 330.205 368.927 346.879C356.987 363.553 340.272 376.059 320.871 383.205C300.574 390.649 278.187 393.329 253.712 393.329C246.548 393.329 241.772 393.329 238.788 393.031C235.803 392.733 231.624 392.733 225.953 392.733V488.311C226.251 490.395 224.759 492.182 222.669 492.479C222.371 492.479 222.072 492.479 221.475 492.479H164.763C162.376 492.479 161.182 491.288 161.182 488.609ZM226.251 236.414V336.458C230.43 336.756 234.31 337.054 237.892 337.054H253.712C265.353 337.054 276.994 335.267 288.037 331.694C297.589 329.014 305.947 323.357 312.513 315.913C318.781 308.47 321.766 298.346 321.766 285.245C322.065 276.015 319.677 266.785 314.901 258.745C309.827 251.004 302.663 245.049 294.007 241.773C282.963 237.307 271.024 235.521 258.786 235.818C251.025 235.818 244.16 235.818 238.489 236.116C232.519 235.818 228.341 236.116 226.251 236.414Z" fill="#31A8FF"/>
<path d="M573.09 318.295C564.135 313.531 554.584 310.256 544.435 308.172C533.392 305.79 522.348 304.301 511.005 304.301C505.036 304.003 498.767 304.897 493.096 306.385C489.216 307.279 485.933 309.363 483.843 312.34C482.351 314.722 481.455 317.7 481.455 320.38C481.455 323.059 482.649 325.739 484.44 328.121C487.127 331.396 490.708 334.076 494.589 336.16C501.454 339.733 508.617 343.009 515.781 345.986C531.899 351.346 547.42 358.789 561.748 367.722C571.598 373.975 579.657 382.312 585.328 392.435C590.104 401.963 592.491 412.385 592.193 423.104C592.491 437.098 588.313 451.092 580.552 462.704C572.195 474.614 560.554 483.845 547.122 489.204C532.496 495.457 514.587 498.732 493.096 498.732C479.366 498.732 465.934 497.541 452.502 494.861C442.055 493.075 431.608 489.8 422.057 485.333C419.968 484.142 418.475 482.058 418.774 479.676V427.868C418.774 426.974 419.072 425.783 419.968 425.188C420.863 424.592 421.758 424.89 422.654 425.486C434.295 432.334 446.533 437.098 459.666 440.075C471.008 443.053 482.948 444.542 494.887 444.542C506.23 444.542 514.289 443.053 519.661 440.373C524.437 438.289 527.72 433.227 527.72 427.868C527.72 423.699 525.332 419.828 520.557 415.958C515.781 412.087 505.931 407.621 491.305 401.963C476.083 396.604 462.054 389.458 448.921 380.525C439.668 373.975 431.907 365.34 426.236 355.216C421.46 345.688 419.072 335.267 419.371 324.846C419.371 312.043 422.952 299.835 429.519 288.818C436.981 276.908 448.025 267.38 460.86 261.425C474.889 254.279 492.499 251.004 513.692 251.004C525.929 251.004 538.466 251.897 550.704 253.684C559.658 254.875 568.314 257.257 576.373 260.532C577.567 260.83 578.761 262.021 579.358 263.212C579.657 264.403 579.955 265.594 579.955 266.785V315.318C579.955 316.509 579.358 317.7 578.463 318.295C575.776 318.891 574.284 318.891 573.09 318.295Z" fill="#31A8FF"/>
</g>
<defs>
<clipPath id="clip0_187_35">
<rect width="716.363" height="696.736" fill="white"/>
</clipPath>
</defs>
</svg>
