<svg width="2502" height="2005" viewBox="0 0 2502 2005" fill="none" xmlns="http://www.w3.org/2000/svg">
<path d="M230.125 1832.16C80.3911 1671.79 -0.000199285 1491.91 -0.000173794 1200.33C-0.000128939 687.244 357.181 227.371 876.599 0.000224114L1006.42 202.01C521.598 466.47 426.815 809.652 389.018 1026.03C467.083 985.275 569.28 971.055 669.442 980.437C931.695 1004.92 1138.42 1222.03 1138.42 1491.91C1138.42 1627.99 1084.81 1758.5 989.39 1854.72C893.97 1950.94 764.554 2005 629.61 2005C473.625 2005 324.472 1933.17 230.125 1832.16ZM1593.85 1832.16C1444.12 1671.79 1363.73 1491.91 1363.73 1200.33C1363.73 687.244 1720.91 227.371 2240.33 0.000343335L2370.15 202.01C1885.33 466.47 1790.54 809.652 1752.75 1026.03C1830.81 985.275 1933.01 971.055 2033.17 980.437C2295.43 1004.92 2502 1222.03 2502 1491.91C2502 1627.99 2448.39 1758.5 2352.97 1854.72C2257.55 1950.94 2128.14 2005 1993.19 2005C1837.21 2005 1688.06 1933.17 1593.71 1832.16L1593.85 1832.16Z" fill="white"/>
</svg>
