<svg width="602" height="678" viewBox="0 0 602 678" fill="none" xmlns="http://www.w3.org/2000/svg">
<g clip-path="url(#clip0_187_62)">
<path d="M601.217 338.842C601.217 299.45 551.34 262.119 474.871 238.969C492.518 161.883 484.675 100.554 450.116 80.9188C442.151 76.313 432.837 74.1313 422.666 74.1313V101.16C428.303 101.16 432.837 102.251 436.636 104.311C453.303 113.765 460.533 149.763 454.896 196.063C453.548 207.456 451.342 219.455 448.646 231.697C424.627 225.879 398.401 221.395 370.828 218.486C354.284 196.063 337.128 175.701 319.849 157.884C359.799 121.159 397.298 101.039 422.788 101.039V74.0101C389.088 74.0101 344.971 97.7662 300.364 138.976C255.756 98.0086 211.639 74.495 177.939 74.495V101.524C203.306 101.524 240.928 121.522 280.879 158.005C263.722 175.822 246.565 196.063 230.266 218.486C202.571 221.395 176.346 225.879 152.326 231.818C149.508 219.698 147.424 207.941 145.954 196.669C140.194 150.369 147.302 114.371 163.846 104.796C167.522 102.614 172.302 101.645 177.939 101.645V74.6162C167.645 74.6162 158.331 76.7978 150.243 81.4036C115.807 101.039 108.087 162.247 125.856 239.09C49.6317 262.362 0 299.571 0 338.842C0 378.233 49.8768 415.564 126.346 438.714C108.699 515.8 116.543 577.129 151.101 596.764C159.066 601.37 168.38 603.552 178.674 603.552C212.375 603.552 256.492 579.796 301.099 538.586C345.706 579.553 389.823 603.067 423.524 603.067C433.818 603.067 443.131 600.885 451.219 596.28C485.655 576.645 493.376 515.436 475.606 438.593C551.586 415.443 601.217 378.112 601.217 338.842V338.842ZM441.661 257.998C437.126 273.634 431.489 289.754 425.117 305.874C420.092 296.178 414.823 286.481 409.063 276.785C403.426 267.089 397.421 257.635 391.416 248.423C408.818 250.968 425.607 254.12 441.661 257.998ZM385.534 387.081C375.975 403.444 366.171 418.958 356 433.381C337.74 434.957 319.236 435.805 300.609 435.805C282.104 435.805 263.599 434.957 245.462 433.502C235.291 419.079 225.365 403.686 215.806 387.445C206.492 371.567 198.037 355.447 190.316 339.205C197.914 322.964 206.492 306.722 215.683 290.845C225.242 274.482 235.046 258.968 245.217 244.545C263.477 242.969 281.981 242.121 300.609 242.121C319.113 242.121 337.618 242.969 355.755 244.423C365.926 258.847 375.853 274.24 385.411 290.481C394.725 306.359 403.181 322.479 410.901 338.72C403.181 354.962 394.725 371.203 385.534 387.081ZM425.117 371.324C431.734 387.566 437.371 403.807 442.028 419.564C425.975 423.442 409.063 426.715 391.539 429.26C397.544 419.927 403.548 410.352 409.186 400.535C414.823 390.838 420.092 381.021 425.117 371.324ZM300.854 500.649C289.457 489.014 278.06 476.045 266.786 461.864C277.815 462.349 289.089 462.713 300.486 462.713C312.006 462.713 323.402 462.47 334.554 461.864C323.525 476.045 312.128 489.014 300.854 500.649ZM209.678 429.26C192.277 426.715 175.488 423.563 159.434 419.685C163.968 404.05 169.606 387.929 175.978 371.809C181.002 381.506 186.272 391.202 192.032 400.898C197.791 410.595 203.674 420.049 209.678 429.26ZM300.241 177.034C311.638 188.669 323.035 201.638 334.309 215.819C323.28 215.334 312.006 214.971 300.609 214.971C289.089 214.971 277.692 215.213 266.54 215.819C277.57 201.638 288.967 188.669 300.241 177.034ZM209.556 248.423C203.551 257.756 197.546 267.331 191.909 277.149C186.272 286.845 181.002 296.541 175.978 306.238C169.36 289.996 163.723 273.755 159.066 257.998C175.12 254.241 192.032 250.968 209.556 248.423V248.423ZM98.6506 400.171C55.2689 381.869 27.2055 357.871 27.2055 338.842C27.2055 319.813 55.2689 295.693 98.6506 277.512C109.19 273.028 120.709 269.028 132.596 265.271C139.581 289.027 148.772 313.752 160.169 339.084C148.895 364.295 139.827 388.899 132.964 412.534C120.832 408.777 109.312 404.656 98.6506 400.171ZM164.581 573.372C147.915 563.918 140.684 527.92 146.322 481.62C147.67 470.227 149.875 458.228 152.571 445.986C176.591 451.804 202.816 456.289 230.389 459.198C246.933 481.62 264.09 501.983 281.369 519.8C241.418 556.525 203.919 576.645 178.429 576.645C172.914 576.523 168.258 575.433 164.581 573.372V573.372ZM455.263 481.014C461.023 527.314 453.915 563.312 437.371 572.887C433.695 575.069 428.916 576.039 423.278 576.039C397.911 576.039 360.289 556.04 320.339 519.557C337.495 501.74 354.652 481.499 370.951 459.076C398.647 456.167 424.872 451.683 448.891 445.744C451.709 457.986 453.915 469.742 455.263 481.014V481.014ZM502.444 400.171C491.905 404.656 480.386 408.655 468.498 412.413C461.513 388.657 452.322 363.931 440.925 338.599C452.2 313.389 461.268 288.784 468.131 265.149C480.263 268.907 491.782 273.028 502.567 277.512C545.948 295.814 574.012 319.813 574.012 338.842C573.889 357.871 545.826 381.99 502.444 400.171V400.171Z" fill="#61DAFB"/>
<path d="M300.486 394.232C331.416 394.232 356.49 369.433 356.49 338.842C356.49 308.251 331.416 283.451 300.486 283.451C269.556 283.451 244.482 308.251 244.482 338.842C244.482 369.433 269.556 394.232 300.486 394.232Z" fill="#61DAFB"/>
</g>
<defs>
<clipPath id="clip0_187_62">
<rect width="601.217" height="677.562" fill="white"/>
</clipPath>
</defs>
</svg>
