<svg width="678" height="401" viewBox="0 0 678 401" fill="none" xmlns="http://www.w3.org/2000/svg">
<g clip-path="url(#clip0_187_53)">
<path d="M338.781 0C248.472 0 192.033 44.5355 169.453 133.598C203.322 89.0627 242.832 72.3682 287.982 83.4979C313.746 89.8481 332.158 108.289 352.544 128.693C385.744 161.932 424.169 200.402 508.109 200.402C598.409 200.402 654.857 155.866 677.428 66.7949C643.568 111.33 604.058 128.033 558.9 116.904C533.144 110.553 514.732 92.1125 494.346 71.7081C461.146 38.4693 422.712 0 338.781 0V0ZM169.453 200.402C79.1531 200.402 22.7049 244.937 0.134033 334.008C33.9945 289.473 73.504 272.77 118.663 283.908C144.418 290.266 162.83 308.699 183.216 329.095C216.416 362.334 254.85 400.811 338.781 400.811C429.09 400.811 485.53 356.276 508.109 267.205C474.24 311.74 434.73 328.443 389.58 317.305C363.816 310.963 345.404 292.514 325.018 272.118C291.819 238.879 253.393 200.402 169.453 200.402V200.402Z" fill="#06B6D4"/>
</g>
<defs>
<clipPath id="clip0_187_53">
<rect width="677.562" height="400.811" fill="white"/>
</clipPath>
</defs>
</svg>
