<svg width="34" height="64" viewBox="0 0 34 64" fill="none" xmlns="http://www.w3.org/2000/svg">
<g clip-path="url(#clip0_129_337)">
<path d="M33.9975 19.0586L16.9963 9.52991L0 19.0586V9.52991L16.9988 0.0012207L34 9.52991V19.0586H33.9975Z" fill="#A435F0"/>
<path d="M0 27.0608H8.90505V48.0655C8.90505 53.4923 13.0788 56.1381 16.9988 56.1381C20.9525 56.1381 25.0958 53.4219 25.0958 47.9927V27.0608H34V48.5664C34 53.5651 32.3814 57.423 29.1434 60.068C25.9038 62.7114 21.8578 63.9987 16.9238 63.9987C11.9948 63.9987 7.94626 62.7138 4.78407 60.068C1.61858 57.4254 0 53.7107 0 48.78V27.0608Z" fill="black"/>
</g>
<defs>
<clipPath id="clip0_129_337">
<rect width="34" height="64" fill="white"/>
</clipPath>
</defs>
</svg>
