<svg width="717" height="699" viewBox="0 0 717 699" fill="none" xmlns="http://www.w3.org/2000/svg">
<path d="M126.856 0H589.507C659.651 0 716.363 56.712 716.363 126.856V571.598C716.363 641.741 659.651 698.454 589.507 698.454H126.856C56.712 698.454 0 641.741 0 571.598V126.856C0 56.712 56.712 0 126.856 0Z" fill="#470137"/>
<path d="M376.686 183.567L287.141 331.316L382.656 488.021C383.253 489.215 383.552 490.409 383.253 491.603C382.955 492.796 381.761 491.901 379.97 492.2H311.617C306.841 492.2 303.558 491.901 301.468 488.916C295.2 476.38 288.634 464.142 282.365 451.606C276.097 439.368 269.232 426.831 262.068 413.997C254.905 401.162 247.741 388.327 240.578 375.194H239.981C233.712 388.028 226.847 400.863 219.982 413.698C213.117 426.533 206.252 439.368 199.685 451.904C192.82 464.44 185.955 477.275 179.09 489.513C177.896 492.498 175.508 492.797 172.225 492.797H106.558C105.364 492.797 104.469 493.393 104.469 491.901C104.17 490.707 104.469 489.513 105.066 488.618L197.894 336.391L107.454 183.268C106.558 182.074 106.26 180.88 106.857 180.283C107.454 179.388 108.647 179.089 109.841 179.089H177.597C179.09 179.089 180.582 179.388 181.776 179.686C182.97 180.283 183.866 181.179 184.761 182.373C190.432 195.208 196.999 208.042 203.864 220.877C211.028 233.712 217.893 246.248 225.355 258.785C232.518 271.321 239.085 283.857 245.353 296.692H245.95C252.218 283.559 258.785 270.724 265.352 258.188C271.918 245.651 278.784 233.115 285.649 220.579C292.514 208.042 299.081 195.208 305.647 182.97C305.946 181.776 306.543 180.582 307.438 179.985C308.632 179.388 309.826 179.089 311.318 179.388H374.299C375.791 179.089 377.283 179.985 377.582 181.477C377.88 181.776 377.283 182.97 376.686 183.567V183.567Z" fill="#FF61F6"/>
<path d="M514.586 498.468C492.498 498.766 470.41 494.289 450.411 485.036C431.607 476.38 416.086 462.052 405.34 444.442C394.296 426.234 388.924 403.55 388.924 376.387C388.625 354.3 394.296 332.51 405.34 313.407C416.683 294.006 433.099 277.888 452.799 267.142C473.693 255.501 498.766 249.83 528.316 249.83C529.808 249.83 531.898 249.83 534.584 250.129C537.27 250.427 540.255 250.427 543.837 250.725V156.404C543.837 154.315 544.732 153.121 546.822 153.121H607.414C608.907 152.823 610.101 154.017 610.399 155.21V439.965C610.399 445.337 610.698 451.307 610.996 457.874C611.593 464.142 611.891 470.112 612.19 475.186C612.19 477.275 611.295 479.066 609.205 479.962C593.684 486.528 577.267 491.304 560.552 494.289C545.329 496.975 530.107 498.468 514.586 498.468V498.468ZM543.837 438.771V307.438C541.151 306.841 538.464 306.244 535.778 305.945C532.495 305.647 529.211 305.348 525.928 305.348C514.287 305.348 502.646 307.736 492.199 313.109C482.051 318.183 473.395 325.645 466.828 335.197C460.261 344.748 456.978 357.583 456.978 373.104C456.68 383.551 458.47 393.998 462.052 403.848C465.037 411.907 469.514 419.071 475.484 425.04C481.155 430.413 488.02 434.592 495.781 436.98C503.84 439.666 512.198 440.86 520.555 440.86C525.032 440.86 529.211 440.562 533.092 440.263C536.972 440.562 540.255 439.965 543.837 438.771V438.771Z" fill="#FF61F6"/>
</svg>
