<svg width="907" height="572" viewBox="0 0 907 572" fill="none" xmlns="http://www.w3.org/2000/svg">
<path d="M906.377 363.145C906.377 173.361 788.515 134.302 703.15 134.302C675.241 132.57 647.284 136.842 621.165 146.827C595.046 156.813 571.371 172.282 551.735 192.191C532.099 212.1 516.959 235.987 507.335 262.241C497.711 288.496 493.826 316.508 495.943 344.391C495.943 515.443 589.408 571.665 711.298 571.665C753.32 574.183 794.961 562.443 829.479 538.348C863.998 514.252 889.373 479.211 901.497 438.898H784.441C778.587 453.199 768.359 465.282 755.221 473.418C742.083 481.553 726.708 485.325 711.297 484.192C697.84 485.462 684.267 483.786 671.523 479.281C658.779 474.777 647.169 467.551 637.499 458.106C627.829 448.662 620.332 437.225 615.529 424.59C610.725 411.956 608.73 398.427 609.683 384.943L906.377 384.943V363.145ZM612.952 317.11C619.444 262.436 647.915 224.118 701.54 224.118C725.43 225.048 748.003 235.307 764.415 252.693C780.826 270.079 789.768 293.206 789.32 317.11L612.952 317.11Z" fill="white"/>
<path d="M815.74 26.4175L589.145 26.4175V90.5151L815.74 90.5151V26.4175Z" fill="white"/>
<path d="M376.428 258.501C398.712 249.305 417.435 233.168 429.819 212.485C442.202 191.803 447.585 167.678 445.167 143.693C445.167 85.8996 410.025 0 272.544 0L0 0L0 560.749H237.401C352.209 560.749 382.665 541.221 414.713 509.992C430.017 494.872 442.177 476.872 450.49 457.03C458.803 437.188 463.106 415.897 463.149 394.383C465.952 365.301 458.935 336.118 443.217 311.49C427.499 286.861 403.986 268.206 376.428 258.501V258.501ZM113.297 90.5272L271.913 90.5272C289.942 90.5272 307.233 97.6891 319.981 110.438C332.73 123.186 339.892 140.476 339.892 158.505C339.892 176.534 332.73 193.825 319.981 206.573C307.233 219.322 289.942 226.484 271.913 226.484L113.297 226.484L113.297 90.5272ZM283.243 453.078L113.297 453.078L113.297 317.121L283.243 317.121C301.272 317.121 318.563 324.283 331.311 337.032C344.059 349.78 351.221 367.071 351.221 385.1C351.221 403.129 344.059 420.419 331.311 433.168C318.563 445.916 301.272 453.078 283.243 453.078Z" fill="white"/>
</svg>
