<svg width="45" height="38" viewBox="0 0 45 38" fill="none" xmlns="http://www.w3.org/2000/svg">
<path d="M33.8405 0H43.3713C43.8137 0 44.1957 0.144517 44.5174 0.433552C44.8391 0.722587 45 1.06581 45 1.46324V36.4725C45 36.8699 44.8391 37.2131 44.5174 37.5022C44.1957 37.7912 43.8137 37.9357 43.3713 37.9357H32.4531C32.0107 37.9357 31.6287 37.7912 31.307 37.5022C30.9853 37.2131 30.8244 36.8699 30.8244 36.4725V21.6234L26.8432 27.4763C26.1997 28.3795 25.4558 28.8312 24.6113 28.8312H20.3887C19.5442 28.8312 18.8003 28.3795 18.1568 27.4763L14.1756 21.6234V36.4725C14.1756 36.8699 14.0147 37.2131 13.693 37.5022C13.3713 37.7912 12.9893 37.9357 12.5469 37.9357H1.62869C1.18633 37.9357 0.804289 37.7912 0.482574 37.5022C0.160858 37.2131 0 36.8699 0 36.4725V1.46324C0 1.06581 0.160858 0.722587 0.482574 0.433552C0.804289 0.144517 1.18633 0 1.62869 0H11.1595C12.2855 0 13.1501 0.487745 13.7534 1.46324L22.5 14.4698L31.2466 1.46324C31.8499 0.487745 32.7145 0 33.8405 0Z" fill="white"/>
<path d="M30.2727 23.794V36.6413C30.2727 37.2277 29.7791 37.7031 29.1702 37.7031H15.8298C15.2209 37.7031 14.7273 37.2277 14.7273 36.6413V23.794L18.2278 28.9548C18.8369 29.8268 19.6693 29.8267 20.4692 29.8267H24.5308C25.3289 29.8267 26.0325 29.8268 26.6416 28.9548L30.2727 23.794Z" fill="#6CCB94"/>
</svg>
